<svg width="52" height="52" viewBox="0 0 52 52" fill="none" xmlns="http://www.w3.org/2000/svg">
<path d="M26.8602 44H13.1398C6.27951 44 4 39.5107 4 35V17C4 10.2447 6.27951 8 13.1398 8H26.8602C33.7205 8 36 10.2447 36 17V35C36 41.7553 33.6988 44 26.8602 44Z" stroke="url(#paint0_linear_1264_407)" stroke-width="3" stroke-linecap="round" stroke-linejoin="round"/>
<path d="M41.8137 37.0006L36 32.7957V19.1893L41.8137 14.9844C44.6578 12.9359 47 14.1866 47 17.7877V34.2189C47 37.82 44.6578 39.0707 41.8137 37.0006Z" stroke="url(#paint1_linear_1264_407)" stroke-width="3" stroke-linecap="round" stroke-linejoin="round"/>
<path d="M25 23C26.6569 23 28 21.6569 28 20C28 18.3431 26.6569 17 25 17C23.3431 17 22 18.3431 22 20C22 21.6569 23.3431 23 25 23Z" stroke="url(#paint2_linear_1264_407)" stroke-width="3" stroke-linecap="round" stroke-linejoin="round"/>
<defs>
<linearGradient id="paint0_linear_1264_407" x1="4" y1="26" x2="36" y2="26" gradientUnits="userSpaceOnUse">
<stop stop-color="#ED7BD6"/>
<stop offset="0.208333" stop-color="#B785EA"/>
<stop offset="0.645833" stop-color="#8C94EA"/>
<stop offset="1" stop-color="#A0CEF3"/>
</linearGradient>
<linearGradient id="paint1_linear_1264_407" x1="36" y1="26" x2="47" y2="26" gradientUnits="userSpaceOnUse">
<stop stop-color="#ED7BD6"/>
<stop offset="0.208333" stop-color="#B785EA"/>
<stop offset="0.645833" stop-color="#8C94EA"/>
<stop offset="1" stop-color="#A0CEF3"/>
</linearGradient>
<linearGradient id="paint2_linear_1264_407" x1="22" y1="20" x2="28" y2="20" gradientUnits="userSpaceOnUse">
<stop stop-color="#ED7BD6"/>
<stop offset="0.208333" stop-color="#B785EA"/>
<stop offset="0.645833" stop-color="#8C94EA"/>
<stop offset="1" stop-color="#A0CEF3"/>
</linearGradient>
</defs>
</svg>
